<?xml version="1.0" standalone="no"?>
<!DOCTYPE svg PUBLIC "-//W3C//DTD SVG 20010904//EN"
 "http://www.w3.org/TR/2001/REC-SVG-20010904/DTD/svg10.dtd">
<svg version="1.0" xmlns="http://www.w3.org/2000/svg"
 width="1788.000000pt" height="1788.000000pt" viewBox="0 0 1788.000000 1788.000000"
 preserveAspectRatio="xMidYMid meet">
<metadata>
Created by potrace 1.14, written by Peter Selinger 2001-2017
</metadata>
<g transform="translate(0.000000,1788.000000) scale(0.100000,-0.100000)"
fill="#000000" stroke="none">
<path d="M3899 13263 c0 -23 0 -1324 0 -1340 1 -9 461 -12 1966 -11 1080 0
1968 -3 1972 -5 9 -6 7 -3152 -2 -3272 -11 -146 -14 -173 -30 -305 -3 -30 -8
-62 -10 -70 -3 -8 -7 -31 -10 -50 -2 -19 -7 -46 -9 -60 -3 -14 -7 -36 -10 -50
-12 -69 -38 -186 -43 -193 -2 -4 -7 -20 -9 -35 -3 -15 -12 -46 -20 -70 -7 -23
-14 -47 -14 -52 0 -5 -5 -21 -12 -37 -6 -15 -12 -33 -13 -39 -6 -26 -69 -191
-87 -226 -10 -21 -17 -38 -14 -38 4 0 -96 -198 -133 -263 -50 -88 -123 -201
-133 -205 -5 -2 -8 -10 -8 -18 0 -8 -3 -14 -7 -14 -5 0 -19 -17 -33 -38 -14
-20 -29 -42 -35 -49 -5 -6 -32 -37 -60 -69 -88 -101 -170 -178 -271 -253 -32
-25 -60 -48 -62 -53 -2 -4 -8 -8 -14 -8 -5 0 -28 -13 -51 -29 -37 -25 -145
-86 -199 -113 -10 -4 -28 -13 -39 -19 -51 -26 -179 -78 -179 -72 0 3 -6 1 -12
-5 -29 -23 -384 -127 -498 -146 -19 -3 -46 -8 -60 -11 -25 -5 -51 -10 -106
-20 -30 -5 -49 -7 -144 -19 -19 -3 -55 -8 -80 -11 -96 -13 -320 -28 -432 -29
-49 -1 -88 -3 -88 -6 0 -7 -69 -4 -76 3 -3 3 -16 3 -28 -1 -25 -9 -69 -8 -85
2 -6 4 -11 3 -11 -1 0 -10 -47 -10 -56 0 -3 3 -17 2 -30 -3 -14 -6 -26 -6 -29
0 -3 6 -15 6 -29 0 -13 -5 -27 -6 -30 -3 -3 3 -43 7 -88 9 -105 3 -263 13
-308 18 -19 3 -62 7 -94 11 -33 3 -62 8 -66 10 -3 2 -30 5 -58 6 -29 2 -52 5
-52 8 0 3 -10 6 -22 7 -23 0 -80 9 -128 19 -189 39 -185 37 -265 59 -137 38
-181 52 -270 84 -135 50 -346 148 -353 165 -2 4 -8 7 -13 7 -14 0 -105 57
-204 129 -95 68 -318 283 -350 339 -11 17 -23 32 -27 32 -4 0 -8 7 -8 16 0 8
-4 12 -10 9 -6 -3 -10 -1 -10 4 0 6 -23 42 -50 81 -28 39 -50 75 -50 80 0 6
-4 10 -10 10 -5 0 -10 4 -10 9 0 5 -17 38 -38 72 -21 35 -48 84 -61 109 -12
25 -26 52 -31 60 -31 54 -109 247 -152 375 -45 137 -103 370 -123 495 -3 19
-8 42 -10 50 -6 20 -16 98 -30 230 -15 144 -23 278 -26 428 -1 60 -5 92 -13
93 -52 5 -1580 3 -1588 -2 -13 -8 -2 -387 17 -599 3 -41 8 -95 10 -120 3 -25
6 -61 9 -80 2 -19 7 -61 11 -93 3 -32 9 -68 11 -80 3 -12 7 -35 9 -52 4 -38
11 -86 25 -155 7 -30 14 -71 17 -90 3 -19 9 -42 13 -50 4 -8 6 -25 5 -37 -1
-13 1 -23 5 -23 3 0 6 -8 7 -17 0 -10 10 -54 22 -98 12 -44 24 -91 27 -105 2
-14 14 -53 25 -88 12 -34 22 -70 24 -80 2 -9 4 -17 5 -17 1 0 3 -9 5 -21 3
-11 11 -34 20 -50 8 -16 15 -36 15 -45 0 -9 3 -19 8 -23 4 -4 8 -12 8 -17 1
-5 3 -11 4 -14 1 -3 3 -8 5 -12 5 -20 39 -105 75 -188 23 -55 102 -222 110
-235 6 -8 14 -25 20 -38 21 -48 143 -252 151 -252 5 0 9 -5 9 -12 0 -19 111
-176 220 -312 61 -76 210 -236 265 -287 17 -15 48 -44 70 -65 23 -22 60 -55
84 -74 24 -19 48 -39 55 -45 44 -39 106 -85 114 -85 6 0 12 -4 14 -8 4 -12
147 -108 258 -174 161 -95 526 -270 568 -271 6 0 12 -3 12 -7 0 -4 6 -7 13 -8
6 0 73 -21 147 -47 74 -26 142 -49 150 -50 8 -2 15 -4 15 -5 0 -1 7 -3 15 -5
8 -2 51 -13 95 -25 139 -39 380 -94 460 -105 17 -3 53 -9 80 -14 52 -11 112
-21 155 -26 14 -2 48 -6 75 -10 28 -3 61 -7 75 -9 14 -2 50 -7 80 -10 30 -4
69 -8 86 -11 30 -4 130 -12 254 -21 36 -3 94 -7 130 -10 95 -7 1030 -12 1030
-5 0 3 21 6 48 7 55 0 245 12 317 19 150 15 264 28 350 40 11 2 43 6 70 10 28
4 59 8 70 10 11 2 38 6 60 9 23 4 52 9 65 12 14 2 36 7 50 9 41 7 94 17 105
20 6 1 28 5 50 9 22 4 51 11 65 16 14 5 39 11 55 13 45 7 177 42 245 65 8 3
20 6 25 6 6 1 37 10 70 21 33 10 63 19 68 21 4 1 8 2 10 4 1 1 10 3 20 5 10 2
26 7 35 11 9 4 22 8 28 9 5 2 71 26 145 55 194 76 339 145 544 260 59 33 200
125 219 142 11 10 28 20 38 24 10 3 18 10 18 15 0 5 4 9 10 9 10 0 44 26 82
63 10 9 21 17 24 17 20 0 283 254 374 360 30 35 65 75 78 87 12 13 22 28 22
33 0 5 6 13 13 17 6 4 23 24 37 43 13 19 28 40 32 45 33 42 78 106 78 111 0 3
6 12 13 19 29 33 37 45 32 45 -3 0 5 15 19 33 15 19 26 39 26 45 0 7 5 12 11
12 5 0 7 4 4 10 -3 6 -3 10 2 10 9 0 17 14 102 173 34 64 59 117 54 117 -4 0
-3 4 2 8 6 4 24 36 39 72 25 58 35 81 66 155 23 54 62 158 65 173 2 9 4 18 5
20 2 1 3 5 5 10 1 4 4 14 8 22 12 31 32 95 32 105 0 6 4 15 7 21 7 10 74 258
81 299 2 11 9 38 15 60 6 22 13 56 16 75 2 19 7 46 10 60 9 40 15 73 20 105 3
17 8 46 11 65 4 19 8 51 10 70 2 19 5 35 5 35 3 0 8 41 14 101 2 29 7 69 10
90 3 22 8 62 11 90 l6 51 3420 0 c2449 0 3419 -3 3419 -11 1 -6 1 -811 1
-1788 l1 -1778 804 0 804 0 0 4255 0 4255 -803 -2 -802 -3 -2 -1735 c-1 -954
-2 -1758 -3 -1786 l0 -50 -3407 0 -3408 0 0 1786 0 1785 -2777 3 c-2641 2
-2778 1 -2779 -15z"/>
</g>
</svg>
