{
  "accessors": [
    {
      "bufferView": 0,
      "componentType": 5125,
      "count": 44730,
      "type": "SCALAR"
    },
    {
      "bufferView": 1,
      "componentType": 5126,
      "count": 8589,
      "max": [
        0.08061479788363796,
        0.06912661867002651,
        0.045933211787032115
      ],
      "min": [
        -0.007300729359901226,
        -0.06854076108051199,
        -0.045933211787032115
      ],
      "type": "VEC3"
    },
    {
      "bufferView": 2,
      "componentType": 5126,
      "count": 8589,
      "max": [
        0.9999999729324678,
        0.999999998267373,
        0.9998097193604254
      ],
      "min": [
        -0.9999999984370629,
        -0.9999999197153129,
        -0.9998097193604254
      ],
      "type": "VEC3"
    },
    {
      "bufferView": 3,
      "componentType": 5126,
      "count": 8589,
      "max": [
        0.7865180727781007,
        1.0
      ],
      "min": [
        0.0,
        0.0
      ],
      "type": "VEC2"
    },
    {
      "bufferView": 4,
      "componentType": 5125,
      "count": 46320,
      "type": "SCALAR"
    },
    {
      "bufferView": 5,
      "componentType": 5126,
      "count": 9028,
      "max": [
        -0.007226745125724354,
        0.06747221687506288,
        0.03591244682560266
      ],
      "min": [
        -0.08061479788363796,
        -0.06912661867002651,
        -0.03591244682560266
      ],
      "type": "VEC3"
    },
    {
      "bufferView": 6,
      "componentType": 5126,
      "count": 9028,
      "max": [
        0.9999999465232059,
        0.9999999537429582,
        0.9995988046102837
      ],
      "min": [
        -0.9999999954770904,
        -0.9999982903107464,
        -0.9995988046102837
      ],
      "type": "VEC3"
    },
    {
      "bufferView": 7,
      "componentType": 5126,
      "count": 9028,
      "max": [
        0.7550065446594142,
        1.0
      ],
      "min": [
        0.0,
        0.0
      ],
      "type": "VEC2"
    }
  ],
  "asset": {
    "generator": "Adobe Illustrator",
    "version": "2.0"
  },
  "bufferViews": [
    {
      "buffer": 0,
      "byteLength": 178920,
      "target": 34963
    },
    {
      "buffer": 0,
      "byteLength": 103068,
      "byteOffset": 178920,
      "target": 34962
    },
    {
      "buffer": 0,
      "byteLength": 103068,
      "byteOffset": 281988,
      "target": 34962
    },
    {
      "buffer": 0,
      "byteLength": 68712,
      "byteOffset": 385056,
      "target": 34962
    },
    {
      "buffer": 0,
      "byteLength": 185280,
      "byteOffset": 453768,
      "target": 34963
    },
    {
      "buffer": 0,
      "byteLength": 108336,
      "byteOffset": 639048,
      "target": 34962
    },
    {
      "buffer": 0,
      "byteLength": 108336,
      "byteOffset": 747384,
      "target": 34962
    },
    {
      "buffer": 0,
      "byteLength": 72224,
      "byteOffset": 855720,
      "target": 34962
    }
  ],
  "buffers": [
    {
      "byteLength": 927944,
      "uri": "data:application/octet-stream;base64,"
    }
  ],
  "materials": [
    {
      "doubleSided": true,
      "pbrMetallicRoughness": {
        "baseColorFactor": [
          0.59765625,
          0.1054687574505806,
          0.1171875074505806,
          1.0
        ],
        "metallicFactor": 0.0,
        "roughnessFactor": 0.0
      }
    },
    {
      "doubleSided": true,
      "pbrMetallicRoughness": {
        "baseColorFactor": [
          0.59765625,
          0.1054687574505806,
          0.1171875074505806,
          1.0
        ],
        "metallicFactor": 0.0,
        "roughnessFactor": 0.0
      }
    }
  ],
  "meshes": [
    {
      "primitives": [
        {
          "attributes": {
            "NORMAL": 2,
            "POSITION": 1,
            "TEXCOORD_0": 3
          },
          "indices": 0,
          "material": 0,
          "mode": 4
        }
      ]
    },
    {
      "primitives": [
        {
          "attributes": {
            "NORMAL": 6,
            "POSITION": 5,
            "TEXCOORD_0": 7
          },
          "indices": 4,
          "material": 1,
          "mode": 4
        }
      ]
    }
  ],
  "nodes": [
    {
      "mesh": 0
    },
    {
      "mesh": 1
    }
  ],
  "scenes": [
    {
      "nodes": [
        0,
        1
      ]
    }
  ]
}
